<svg width="128" height="27" viewBox="0 0 128 27" fill="none" xmlns="http://www.w3.org/2000/svg">
<g clip-path="url(#clip0_44_209)">
<path d="M75.597 11.388V1.45498C75.597 0.809983 76.099 0.307983 76.744 0.307983C77.389 0.307983 77.891 0.809983 77.891 1.45498V19.24C77.891 23.974 74.951 26.304 70.863 26.304C66.238 26.304 63.512 23.542 63.512 17.661C63.512 11.781 66.094 9.05598 70.72 9.05598C73.015 9.05698 74.771 10.24 75.597 11.388ZM75.597 14.293C75.597 14.293 74.235 11.137 70.864 11.137C67.6 11.137 65.807 13.252 65.807 17.662C65.807 22.144 67.565 24.225 70.864 24.225C73.626 24.225 75.597 22.647 75.597 19.241V14.293Z" fill="#262D33"/>
<path d="M88.867 9.05701C94.603 9.05701 95.716 13.611 95.716 16.049C95.716 17.09 95.716 18.344 94.281 18.344H83.811C83.811 21.895 85.856 24.19 89.226 24.19C91.305 24.19 92.525 23.401 93.529 22.647C93.745 22.504 93.887 22.432 94.175 22.432C94.749 22.432 95.215 22.899 95.215 23.473C95.215 23.866 95.036 24.082 94.82 24.297C94.282 24.834 92.418 26.305 89.226 26.305C84.457 26.305 81.481 23.688 81.481 17.662C81.48 12.141 84.205 9.05701 88.867 9.05701ZM88.867 11.137C85.747 11.137 84.025 13.145 83.81 16.336H93.456C93.457 13.754 92.561 11.137 88.867 11.137Z" fill="#262D33"/>
<path d="M101.168 13.432C101.168 17.198 110.6 15.799 110.6 21.536C110.6 24.8 107.911 26.27 104.503 26.27C101.563 26.27 99.304 24.872 98.371 23.688C98.191 23.436 98.12 23.256 98.12 23.006C98.12 22.432 98.586 21.965 99.16 21.965C99.375 21.965 99.662 22.037 99.949 22.324C101.06 23.435 102.495 24.082 104.503 24.082C106.547 24.082 108.305 23.4 108.305 21.535C108.305 17.842 98.873 19.312 98.873 13.431C98.873 10.454 101.311 9.09204 104.359 9.09204C106.797 9.09204 108.699 9.91704 109.81 11.387C109.917 11.53 110.06 11.745 110.06 12.068C110.06 12.642 109.594 13.108 109.021 13.108C108.841 13.108 108.554 13.072 108.267 12.785C107.299 11.852 106.224 11.279 104.359 11.279C102.746 11.28 101.168 11.782 101.168 13.432Z" fill="#262D33"/>
<path d="M125.303 25.588L118.956 17.447L116.768 19.205V24.978C116.768 25.623 116.266 26.124 115.621 26.124C114.976 26.124 114.474 25.622 114.474 24.978V1.45498C114.474 0.809983 114.977 0.307983 115.621 0.307983C116.267 0.307983 116.768 0.809983 116.768 1.45498V16.479L125.231 9.55898C125.517 9.30798 125.804 9.27198 126.019 9.27198C126.665 9.27198 127.167 9.77398 127.167 10.419C127.167 10.706 127.06 11.065 126.7 11.351L120.819 16.048L127.202 24.259C127.417 24.511 127.454 24.761 127.454 24.978C127.454 25.623 126.952 26.124 126.306 26.124C125.912 26.125 125.59 25.945 125.303 25.588Z" fill="#262D33"/>
<path d="M8.10896 9.05701C11.408 9.05701 13.308 10.706 13.954 11.531C14.241 11.926 14.349 12.213 14.349 12.643C14.349 13.611 13.596 14.364 12.628 14.364C12.054 14.364 11.624 14.114 11.301 13.755C10.835 13.253 9.90296 12.357 8.10996 12.357C5.59996 12.357 4.23696 14.294 4.23696 17.663C4.23696 21.106 5.59996 23.007 8.10996 23.007C9.75896 23.007 10.835 22.183 11.66 21.571C12.055 21.286 12.377 21.214 12.736 21.214C13.704 21.214 14.457 21.966 14.457 22.935C14.457 23.437 14.278 23.867 13.848 24.261C13.023 25.015 11.051 26.306 8.11096 26.306C3.23396 26.306 0.329957 23.509 0.329957 17.663C0.327958 11.818 3.23196 9.05701 8.10896 9.05701Z" fill="#107B49"/>
<path d="M20.77 11.208C21.451 10.168 22.958 9.05601 25.36 9.05601C30.237 9.05601 31.384 12.176 31.384 15.296V24.259C31.384 25.335 30.523 26.124 29.447 26.124C28.3 26.124 27.51 25.335 27.51 24.259V16.013C27.51 13.969 26.685 12.57 24.355 12.57C21.666 12.57 20.769 14.148 20.769 16.263V24.259C20.769 25.335 19.944 26.124 18.832 26.124C17.721 26.124 16.896 25.335 16.896 24.259V2.24401C16.896 1.16801 17.756 0.307007 18.832 0.307007C19.908 0.307007 20.769 1.16801 20.769 2.24401V11.208H20.77Z" fill="#107B49"/>
<path d="M37.625 13.862C37.267 14.113 36.98 14.221 36.549 14.221C35.617 14.221 34.864 13.468 34.864 12.535C34.864 12.14 35.008 11.71 35.33 11.351C36.334 10.24 38.127 9.05603 41.211 9.05603C45.657 9.05603 48.311 11.244 48.311 15.044V24.224C48.311 25.263 47.45 26.124 46.411 26.124C45.371 26.124 44.51 25.263 44.51 24.224C43.542 25.767 41.964 26.304 39.813 26.304C36.299 26.304 33.968 24.116 33.968 20.89C33.968 17.554 36.657 15.833 39.777 15.833H44.474V15.188C44.474 13.573 43.291 12.498 41.211 12.498C39.633 12.499 38.521 13.216 37.625 13.862ZM44.474 19.85V18.846H40.279C38.701 18.846 37.841 19.6 37.841 20.891C37.841 22.252 38.809 23.079 40.817 23.079C42.717 23.078 44.474 21.857 44.474 19.85Z" fill="#107B49"/>
<path d="M52.975 6.547C52.975 5.507 53.836 4.646 54.875 4.646C55.915 4.646 56.776 5.507 56.776 6.547V9.559H58.389C59.285 9.559 60.003 10.276 60.003 11.173C60.003 12.07 59.286 12.787 58.389 12.787H56.776V21.464C56.776 22.29 57.493 22.755 58.138 22.755C59.071 22.755 59.824 23.509 59.824 24.441C59.824 25.375 59.071 26.127 58.138 26.127C54.947 26.127 52.974 24.084 52.974 21.25V12.788H52.15C51.254 12.788 50.536 12.071 50.536 11.174C50.536 10.277 51.253 9.56 52.15 9.56H52.975V6.547Z" fill="#107B49"/>
</g>
<defs>
<clipPath id="clip0_44_209">
<rect width="128" height="27" fill="white"/>
</clipPath>
</defs>
</svg>
