<svg width="178" height="49" viewBox="0 0 178 49" fill="none" xmlns="http://www.w3.org/2000/svg">
<path d="M23.1143 39.3099V26.3694C23.1143 21.4637 21.6125 17.5351 14.8017 17.5351C11.9868 17.5351 10.0016 18.0016 7.61485 19.2886V0.777067C7.61485 0.355616 7.186 0 6.67683 0H0.938791C0.428848 0 0 0.355616 0 0.777067V39.3092C0 39.7307 0.482657 40.1302 0.991819 40.1302H6.67683C7.186 40.1302 7.61485 39.7307 7.61485 39.3092V23.995C9.22343 23.2844 10.6722 22.752 12.0398 22.752C14.9092 22.752 15.4995 23.6394 15.4995 26.3694V39.3099C15.4995 39.7313 15.9284 40.1307 16.4383 40.1307H22.1225C22.659 40.1314 23.1143 39.732 23.1143 39.3099ZM177.062 21.0874V18.8678C177.062 18.3134 176.554 17.8468 175.91 17.8468H164.191C155.985 17.8468 152.474 20.7989 152.474 25.1935V25.5039C152.474 27.0581 153.117 29.0556 154.618 30.1431C153.438 30.9195 152.553 32.0077 152.553 33.4502C152.553 34.7152 153.252 36.2686 154.942 37.0678C152.93 38.3333 152.125 39.8203 152.125 41.4185V41.7288C152.125 45.8124 156.254 48.0545 164.059 48.0545C172.344 48.0545 176.367 45.9905 176.367 41.7288V41.4185C176.367 37.6892 173.552 36.6231 165.373 35.1593L160.062 34.1821C158.936 33.982 158.668 33.7154 158.668 33.0939C158.668 32.739 158.801 32.4724 159.312 32.2065C160.25 32.5168 161.993 32.7835 164.192 32.7835C171.54 32.7835 175.804 30.5645 175.804 25.5032V25.1929C175.804 24.2615 175.347 23.0178 174.783 22.3298L176.232 21.9303C176.795 21.7748 177.062 21.6199 177.062 21.0874ZM168.374 25.5039C168.374 27.191 167.49 28.234 164.191 28.234C160.624 28.234 159.927 26.836 159.927 25.5039V25.1935C159.927 23.5954 160.866 22.3969 164.191 22.3969C167.543 22.3969 168.374 23.5954 168.374 25.1935V25.5039ZM168.617 41.7294C168.617 42.8834 167.92 43.7051 164.057 43.7051C160.436 43.7051 159.363 43.0396 159.363 41.7294V41.4191C159.363 40.0424 159.739 39.4208 160.303 38.7774L163.789 39.3989C167.999 40.1753 168.616 40.6638 168.616 41.4191V41.7294H168.617ZM150.73 39.3099V26.3694C150.73 21.4637 149.228 17.5351 142.417 17.5351C139.413 17.5351 137.349 18.0456 134.774 19.5552V18.6226C134.774 18.2011 134.344 17.8461 133.836 17.8461H128.553C128.045 17.8461 127.614 18.2011 127.614 18.6226V39.3099C127.614 39.7313 128.098 40.1307 128.607 40.1307H134.29C134.802 40.1307 135.23 39.7313 135.23 39.3099V23.995C136.84 23.2844 138.287 22.752 139.656 22.752C142.524 22.752 143.115 23.6394 143.115 26.3694V39.3099C143.115 39.7313 143.544 40.1307 144.079 40.1307H149.738C150.273 40.1314 150.73 39.732 150.73 39.3099ZM125.657 39.3544V34.4493C125.657 34.0278 125.254 33.7161 124.719 33.7161H119.222C118.712 33.7161 118.257 34.0272 118.257 34.4493V39.3544C118.257 39.7764 118.712 40.1314 119.222 40.1314H124.719C125.254 40.1314 125.657 39.7764 125.657 39.3544ZM117.129 33.9388C117.129 31.8528 116.299 29.832 112.384 27.9681L106.564 25.1929C105.625 24.7269 105.116 24.4164 105.116 23.8388C105.116 22.9514 105.759 22.7067 107.609 22.7067C109.998 22.7067 114.045 23.0623 115.386 23.2172C115.439 23.2172 115.494 23.2172 115.549 23.2172C116.004 23.2172 116.326 22.9514 116.326 22.4847V19.3331C116.326 18.8665 116.004 18.5561 115.44 18.4232C113.053 17.9346 110.801 17.5351 107.074 17.5351C100.585 17.5351 97.4469 19.6437 97.4469 23.5722C97.4469 26.0803 99.0024 28.0772 101.63 29.3209L107.744 32.2285C109.059 32.8499 109.487 33.2934 109.487 33.871C109.487 34.8701 108.951 35.3806 106.698 35.3806C105.197 35.3806 101.255 35.114 98.7068 34.8475C98.6811 34.8475 98.5736 34.8475 98.5197 34.8475C97.9567 34.8475 97.6347 35.1812 97.6347 35.5806V38.7322C97.6347 39.1989 97.9567 39.5093 98.5197 39.6202C100.933 40.1746 104.5 40.4858 107.074 40.4858C113.939 40.4864 117.129 37.6008 117.129 33.9388ZM96.2397 47.0122V9.3009C96.2397 8.87952 95.8656 8.5239 95.3556 8.5239H89.6175C89.1077 8.5239 88.6249 8.87952 88.6249 9.3009V47.0122C88.6249 47.4335 89.1077 47.8111 89.6175 47.8111H95.3556C95.8656 47.8111 96.2397 47.4335 96.2397 47.0122ZM87.2838 30.0095V27.768C87.2838 21.8858 83.3961 17.5357 75.6728 17.5357C68.2178 17.5357 63.7937 21.5088 63.7937 27.768V30.4755C63.7937 37.9996 69.9075 40.4858 75.5926 40.4858C79.6689 40.4858 82.2163 40.1752 85.2198 39.5538C86.0238 39.3989 86.2117 39.1097 86.2117 38.4889V35.5368C86.2117 35.1154 85.8367 34.9152 85.3266 34.9152C85.2728 34.9152 85.2191 34.9152 85.1653 34.9152C83.2885 35.0708 79.1061 35.2709 76.1555 35.2709C72.4549 35.2709 71.329 33.2507 71.329 31.0312V30.9428H86.292C86.9088 30.9421 87.2838 30.6092 87.2838 30.0095ZM79.8568 27.0581H71.329V26.9025C71.329 24.0614 73.0451 22.5963 75.6464 22.5963C78.274 22.5963 79.8561 24.0389 79.8561 26.9025V27.0581H79.8568ZM63.8201 39.3989V36.3578C63.8201 35.9363 63.4451 35.6924 62.8284 35.6924H60.5228C59.1285 35.6924 58.9671 35.4257 58.9671 33.8723V22.5526H62.8284C63.3382 22.5526 63.7671 22.1969 63.7671 21.7754V18.6232C63.7671 18.2019 63.3382 17.8468 62.8284 17.8468H58.9671V13.7188C58.9671 13.3412 58.5921 13.0753 58.1367 13.0753C58.0829 13.0753 58.0291 13.0753 58.0018 13.0753L52.2638 13.8737C51.7547 13.9627 51.3258 14.2293 51.3258 14.6508V17.8468H47.5714C47.0349 17.8468 46.5795 18.2463 46.5795 18.6678V21.2423C46.5795 21.6638 47.0357 21.9748 47.5714 22.0413L51.3258 22.5518V33.8277C51.3258 39.3544 54.0337 40.4858 59.2088 40.4858C60.5765 40.4858 61.5153 40.3528 62.9359 40.1752C63.499 40.0869 63.8201 39.7764 63.8201 39.3989ZM47.9457 30.3651V27.6577C47.9457 21.4643 43.8162 17.5357 36.2005 17.5357C28.6122 17.5357 24.4282 21.4643 24.4282 27.6577V30.3651C24.4282 36.5578 28.6114 40.4864 36.2005 40.4864C43.8162 40.4864 47.9457 36.5578 47.9457 30.3651ZM40.3838 30.3651C40.3838 33.5173 38.9367 35.1599 36.2014 35.1599C33.4925 35.1599 31.9916 33.5173 31.9916 30.3651V27.6577C31.9916 24.5055 33.4934 22.9075 36.2014 22.9075C38.9367 22.9075 40.3838 24.5061 40.3838 27.6577V30.3651Z" fill="#00AEFF"/>
</svg>
